<svg xmlns="http://www.w3.org/2000/svg" viewBox="0 0 512 512" fill="none">
  <!-- Thicker Protective Arcs for legibility at 20-24px -->
  <path d="M 206 82 A 180 180 0 0 0 76 256 A 180 180 0 0 0 206 430" stroke="#06b6d4" stroke-width="24" stroke-linecap="round" />
  <path d="M 306 82 A 180 180 0 0 1 436 256 A 180 180 0 0 1 306 430" stroke="#06b6d4" stroke-width="24" stroke-linecap="round" />

  <!-- Connecting Node Markers -->
  <circle cx="206" cy="82" r="8" fill="#fbbf24" />
  <circle cx="206" cy="430" r="8" fill="#fbbf24" />
  <circle cx="306" cy="82" r="8" fill="#fbbf24" />
  <circle cx="306" cy="430" r="8" fill="#fbbf24" />

  <!-- Bold Central Flame -->
  <path d="M 256 135 C 210 215, 200 285, 220 335 C 230 360, 242 368, 256 368 C 270 368, 282 360, 292 335 C 312 285, 302 215, 256 135 Z" fill="#fbbf24" />
</svg>
